<?xml version="1.0" encoding="utf-8"?>
<!-- Uploaded to: SVG Repo, www.svgrepo.com, Generator: SVG Repo Mixer Tools -->
<svg fill="#ffffff" width="24px" height="24px" viewBox="0 0 32 32" version="1.1" xmlns="http://www.w3.org/2000/svg">
<title>divide</title>
<path d="M30 15.25h-28c-0.414 0-0.75 0.336-0.75 0.75s0.336 0.75 0.75 0.75v0h28c0.414 0 0.75-0.336 0.75-0.75s-0.336-0.75-0.75-0.75v0zM16 11.749c2.071 0 3.75-1.679 3.75-3.75s-1.679-3.75-3.75-3.75c-2.071 0-3.75 1.679-3.75 3.75v0c0.002 2.070 1.68 3.748 3.75 3.75h0zM16 5.749c1.243 0 2.25 1.007 2.25 2.25s-1.007 2.25-2.25 2.25c-1.243 0-2.25-1.007-2.25-2.25v0c0.002-1.242 1.008-2.248 2.25-2.25h0zM16 20.25c-2.071 0-3.75 1.679-3.75 3.75s1.679 3.75 3.75 3.75c2.071 0 3.75-1.679 3.75-3.75v0c-0.002-2.070-1.68-3.748-3.75-3.75h-0zM16 26.25c-1.243 0-2.25-1.007-2.25-2.25s1.007-2.25 2.25-2.25c1.243 0 2.25 1.007 2.25 2.25v0c-0.002 1.242-1.008 2.248-2.25 2.25h-0z"></path>
</svg>